<svg xmlns="http://www.w3.org/2000/svg"><symbol id="brachiosaurus" viewBox="0 0 256 256"><path d="M61 165.9a30.8 30.8 0 0 0-7.5.9c0 .3.3.6.8.9a10.6 10.6 0 0 0 1.9 1.1l2.6.9 2.7.8 2.3.6 1.5.2h2a10.1 10.1 0 0 0 2.5-.4l2.3-.8a4.5 4.5 0 0 0 1.6-1.4 26.9 26.9 0 0 0-6.2-2.2 35 35 0 0 0-6.5-.6z"/><path d="M128 4.5A123.5 123.5 0 1 0 251.5 128 123.5 123.5 0 0 0 128 4.5zm80.5 68.1v.3a3.6 3.6 0 0 1-.1 1.4 16.2 16.2 0 0 1-.3 2l-.3 2.1a10.5 10.5 0 0 0-.2 1.3 5.1 5.1 0 0 0-.9 1.8l-.6 1.9-.6 1.9a10.7 10.7 0 0 1-.7 1.9c-.5 1.1-1.1 2.1-1.6 3a26.9 26.9 0 0 0-1.6 2.9l-19.4 27c-.1.2-.1.4-.2.5l-.3.3-.3.2-.4.5-1.6 2.2-2 2.8-2.1 3.2a25.9 25.9 0 0 0-1.9 3.1c-.6 1.1-1 2-1.4 2.9a8 8 0 0 0-.5 2.3c0 .3-.2.5-.2.7s.2.4.2.7a.3.3 0 0 0-.3.3c0 .3.1.4.3.4v9.9a4.4 4.4 0 0 1-.2 1c-.2.3-.2.7-.4 1.1s-.5.8-.6 1.2-.4.8-.4 1.1v1.6c0 .1.1.2 0 .4a2 2 0 0 0-.4.8c-.2.3-.6.5-.7.8l-.5.4v.4s.6.2.7.4.9.3.9.4v2.7a18.6 18.6 0 0 1-.6 3.4c-.2 1.2-.6 2.3-.8 3.4l-.6 3.4a20.7 20.7 0 0 0-.3 3.5 52.6 52.6 0 0 0 1.3 12.1 26 26 0 0 0 2.1 5.5 18.6 18.6 0 0 0 3.3 5.1 3.6 3.6 0 0 1-1.2.8l-1.7.7-1.6.4a3.5 3.5 0 0 1-1.4.1h-.5l-1-.2-1.1-.3-1-.2h-.7l-.7-.3a1 1 0 0 1-.6-.5c-.2-.1-.3-.4-.4-.7a24.8 24.8 0 0 0 .2-3.9l-.3-4.1c-.2-1.4-.3-2.8-.5-4.2s-.4-2.7-.5-4-.1-.3-.2-.6l-.3-.6c.1-1 .1-2.2.2-3.5s-.1-2.6-.2-3.9-.3-2.6-.5-3.9a16.4 16.4 0 0 0-1.4-3.3 3.3 3.3 0 0 0-1.4 1.8 16 16 0 0 0-.8 2.6c-.2.9-.2 1.9-.4 2.8a11.8 11.8 0 0 0-.9 2.3v7.3c0 2.8-.2 5.5-.1 8.1s.2 5.2.5 7.9l.4.4.8.5.8.7a.9.9 0 0 1 .3.6c0 .3-.2.5-.8.8a7.5 7.5 0 0 1-1.8.8 7.7 7.7 0 0 1-1.9.8 7.9 7.9 0 0 1-1.3.5h-.1l-4.7-2.6a.4.4 0 0 1-.2-.4v-.6a13.3 13.3 0 0 1 .1-2.9 28.1 28.1 0 0 0 .1-3c0-1.2-.2-2.4-.3-3.6l-.6-3.7-.6-3.6c-.1-1.2-.2-2.5-.2-3.8a31.1 31.1 0 0 1 .1-3.2l.3-2.7a25.6 25.6 0 0 0 .5-2.7c.2-1 .4-2 .7-3.2a1.8 1.8 0 0 0-.1-.6 3.5 3.5 0 0 0-.1-.7 5.5 5.5 0 0 0-1.8.2l-1.8.5-1.9.6-1.8.5-1.3.2h-2l-1.1-.2h-6.9a41.8 41.8 0 0 0-5.1-.2h-2.3a3.8 3.8 0 0 0-2.3.8v5.1c0 1.7-.1 3.3-.2 5s-.2 3.3-.2 4.9-.2 3.4-.2 5.1v2.3a7.5 7.5 0 0 1 0 1.5v1c0 .5.7 1.1 1.1 1.6a20.9 20.9 0 0 1 1.4 1.7l1.2 1.7a3.7 3.7 0 0 1 .5 1.7v.4a8.4 8.4 0 0 1-3.9.4c.1.5 0 .7-.2.8h-2.7a8.3 8.3 0 0 1-2.2-.3 3.8 3.8 0 0 1-1.7-.8 2.2 2.2 0 0 1-.8-1.8 5 5 0 0 1 .2-1.2 2.8 2.8 0 0 1 .3-1.3l.3-1.3a5.7 5.7 0 0 0 .1-1.3 21.3 21.3 0 0 0-.3-3.7c-.1-1.2-.4-2.4-.6-3.5s-.5-2.6-.8-3.8a26.2 26.2 0 0 1-.7-3.8h-.5c-.2 0-.4.7-.5.9s-.3.5-.4.6a3.3 3.3 0 0 1-.3.6l-1.5 2.2a16.4 16.4 0 0 0-1.4 2.2 9.7 9.7 0 0 0-1.1 2.3 8 8 0 0 0-.4 2.7 4 4 0 0 0 .3 1.5 10.7 10.7 0 0 0 .7 1.5l.7 1.1a.8.8 0 0 1 .3.6.8.8 0 0 1-.4.7l-.9.5-1.3.2h-4.2l-1.1-.4a2.7 2.7 0 0 1-.7-.8l-.5-1.6a9.8 9.8 0 0 0-.5-1.6 4.1 4.1 0 0 1-.3-1.6 4.3 4.3 0 0 1 .4-1.4 14 14 0 0 1 1-1.6l1-1.5.8-1.4 2.4-5.8c.8-1.9 1.5-3.8 2.4-5.7a1.6 1.6 0 0 1 .4-.7l.5-.7.5-.7a2.5 2.5 0 0 0 .1-.8c0-.4-.1-.6-.3-.7h-1.2l-8.8 2.4c-.2.3-.7.4-1.2.5l-1.8.4-1.5.6a1.1 1.1 0 0 0-.7 1 1.2 1.2 0 0 0 .3.9l.6.6.8.6a1.3 1.3 0 0 1 .7.6l-.3.4-1.3-.9-1.3-.7-1.5-.6-1.5-.2a16.4 16.4 0 0 0-3.7.5l-3.8 1.1-4 1.1a14.4 14.4 0 0 1-4.1.5 17.7 17.7 0 0 1-3.4-.4l-4.7-1-5.3-1.7a36.1 36.1 0 0 1-4.8-2.2 15.2 15.2 0 0 1-3.6-2.6 4.3 4.3 0 0 1-.3-6.1 6.1 6.1 0 0 1 2.7-1.6 12 12 0 0 1 3.3-.1 31.1 31.1 0 0 1 3.3.3h3.9a1.9 1.9 0 0 1 1.2-.3 21.5 21.5 0 0 1 2.3.2l2.5.3 1.9.2a7 7 0 0 1 1.9.6l1.7.8 1.8.7a5.8 5.8 0 0 0 1.9.3 8.7 8.7 0 0 0 3.9-1 29.2 29.2 0 0 0 4-2.5 35.7 35.7 0 0 0 3.8-3c1.2-1 2.2-1.9 3.2-2.6l1.8-1.2 1.8-1.1 1.6-1.2a6.1 6.1 0 0 0 1.5-1.7 37 37 0 0 0 2.5-4.3 32.3 32.3 0 0 1 2.7-4.4 4.6 4.6 0 0 1 1.2-1.2l1.5-1 1.6-.9a5.1 5.1 0 0 0 1.6-.9 28 28 0 0 0 3.5-2.5l3.3-2.8 3.3-3 3.4-2.8a21.2 21.2 0 0 1 3.6-2.1l3.9-1.8 2.4-1.2 2.4-1.3 2.5-1.1a7.7 7.7 0 0 1 2.6-.7l21.7-3.2a10.4 10.4 0 0 0 3.4-1.1 30.2 30.2 0 0 0 3.3-2.1l3.1-2.8 2.8-3.2 2.6-3.1 2.3-2.8 7.5-8.7.3-.2.5-.6.5-.5.3-.2 2-3.2.2-.2.4-.2.3-.2.2-.2c.1-.1.3-.2.4-.4l.4-.4a12.5 12.5 0 0 0 1.2-1.7 12.7 12.7 0 0 0 1.3-1.9 21.4 21.4 0 0 0 1.3-1.9l1-1.6a16.7 16.7 0 0 0 .8-2 17.2 17.2 0 0 1 .7-2.1c.2-.7.5-1.4.7-2.1s1-1.4 1-2.1v-6a5.3 5.3 0 0 0-1.1-3 11.8 11.8 0 0 0-2.5-2.5 10.6 10.6 0 0 0-3.3-1.8 9.9 9.9 0 0 0-3.1-.6 26.2 26.2 0 0 0-5.7.6 11.1 11.1 0 0 0-4.9 2.6 6.2 6.2 0 0 0-1.4 1.4l-1.6 1.8-1.7 1.9a15.3 15.3 0 0 1-1.8 1.8 10.2 10.2 0 0 1-1.8 1.3 3.7 3.7 0 0 1-1.7.5 1.6 1.6 0 0 1-1.1-.5 1.4 1.4 0 0 1-.5-1.1v-.4a.8.8 0 0 1 .1-.4c0-.3.1-.5.1-.8a6.4 6.4 0 0 1 .2-.7v-.5a3.9 3.9 0 0 0-.2-1.6l-.6-1.3a6.1 6.1 0 0 1-.5-1.2 2.7 2.7 0 0 1-.3-1.2c.4 0 .7-.1.8-.3s.3-.3.5-.6a2.5 2.5 0 0 1 .4-.7 1.8 1.8 0 0 1 .8-.6h2.7a1 1 0 0 0 .9-.4l.7-.6c.1-.1.2 0 .3 0h.1a.5.5 0 0 1 .2.4c.1.2.2.3.2.4s.2-.3.4-.4l.6-.3 1.1-.7 1.3-.8 1.3-.7 1.1-.7.5-.3a13.5 13.5 0 0 1 2.1-1.3 5.8 5.8 0 0 1 1.7-.6l1.9-.2h6.2l1.5.5 1.5.3 1.5.3 1.5.5a13.5 13.5 0 0 1 4.4 2.9 15.3 15.3 0 0 1 3.1 4.1 18.9 18.9 0 0 1 1.7 4.9 23.2 23.2 0 0 1 .4 5.3v.7a2.2 2.2 0 0 1 0 .8z"/></symbol><symbol id="micropachycephalosaurus" viewBox="0 0 256 256"><path d="M132.4 150.5c-.3 0-.4.2-.4.6h-.1c-.3 0-.4.1-.4.4s.1.6.4.6.4-.2.4-.6h.1c.3 0 .5-.1.5-.4s-.2-.6-.5-.6zm1.4-.8a3 3 0 0 0-.8.8h.3l1.1-.3.8-.8h-.3a2.3 2.3 0 0 0-1.1.3zm3-2.5c-.3 0-.4.2-.4.5a.1.1 0 0 0-.1-.1c-.3 0-.5.2-.5.6h-.1c-.3 0-.4.2-.4.6s.1.5.4.5a.5.5 0 0 0 .5-.5h.1c.3 0 .4-.2.4-.6h.1c.3 0 .5-.2.5-.6a.5.5 0 0 0-.5-.4zm22.6-5.7l-1.3 1.3a2 2 0 0 0 .8 1.1h1.1a2.3 2.3 0 0 0 1.4-.4 5.8 5.8 0 0 0 1-1.2 9.1 9.1 0 0 0 .7-1.4c.3-.5.4-1.2.5-1.2h-3.3c-.2.1-.5 1.2-.9 1.8z"/><path d="M128 4.5A123.5 123.5 0 1 0 251.5 128 123.5 123.5 0 0 0 128 4.5zm92.6 73.3a3.3 3.3 0 0 1-1.5.3h-3.6l-5.1 1.2a14.2 14.2 0 0 0-3.5 1.6 6.1 6.1 0 0 0-2.4 2.1 11 11 0 0 0-1.7 2.8c-.5 1.1-1 2.4-1.5 3.8s-1 3.1-1.6 4.9-.8 2.3-1.2 3.3a16.6 16.6 0 0 1-1.2 3.1 29.2 29.2 0 0 1-1.4 3.1l-1.7 3.1a23 23 0 0 1-2.6 4c-.9 1.2-1.8 2.4-2.8 3.5s-2 2.4-3.1 3.5l-3 3.7a12.6 12.6 0 0 0-1.3 2.6 18.6 18.6 0 0 1-1 2.5 5.7 5.7 0 0 1-1.3 2.1 4.8 4.8 0 0 1-2.4 1.6l-1.3.5-1.9.7-2 .6-1.4.4a2.5 2.5 0 0 1 .2 2 2.4 2.4 0 0 1-.8.9l-1.2.5a1.8 1.8 0 0 0-.9 1l-2.2 6.5a2.5 2.5 0 0 1-1 1.5l-1.7.8a12.3 12.3 0 0 1-2 .2 10.9 10.9 0 0 1-1.8-.1h-1.9a.8.8 0 0 1-.4-.8c0-.2.1-.3.1-.4l.3-.3c0-.1.1-.1.2-.2s.1-.2.1-.4v-.2a21.1 21.1 0 0 0-3.4 1.6l-3.3 2-3.2 2.1a21.7 21.7 0 0 1-3.3 1.9l-.8.5-1.1.5-1 .8a1.3 1.3 0 0 0-.4 1v.6l1.8 1.5a15.4 15.4 0 0 0 1.9 1.7l1.9 1.6 2.1 1.2a4.9 4.9 0 0 0 1.7.6l1.9.6a10.6 10.6 0 0 1 1.9.6 5.1 5.1 0 0 1 1.6.9 8 8 0 0 1 1.3 1.3l1.1 1.5a7.6 7.6 0 0 0 1.1 1.4 5.8 5.8 0 0 0 1.4 1.3 5 5 0 0 0 1.6.5l2 .7a5.2 5.2 0 0 1 1.8 1 1.9 1.9 0 0 1 .7 1.6v.5l-5.4 1.1-1.1.4a2 2 0 0 1-1.1.3h-.6l-1.1-.6-1.7-1-1.6-1c-.5-.3-.9-.5-1-.7s-.1-.1-.2-.2l-.3-.5-.4-.5c-.1-.2-.2-.3-.2-.5l-2.2-4.3-1.1-.5-1.8-.7-2-.9-2.1-.9-1.8-.8-1-.6-2.7-1.5a13.3 13.3 0 0 1-2.6-2.1 11.5 11.5 0 0 1-1.9-2.6 8.9 8.9 0 0 1-1.1-3.1l-.5.2-.6.4-.8.6-1.7 1.1-2 1.4-2.1 1.3-1.7 1.1-.9.5-5.8 3.4a26.1 26.1 0 0 0-4.5 3.3 21.9 21.9 0 0 0-3.5 4.4c-.8 1.6-.7 3.8-2.3 6.4v1.5a9.6 9.6 0 0 0 1 4.3 7.5 7.5 0 0 0 2.1 2.5 7.7 7.7 0 0 0 2.5 1.4 14.5 14.5 0 0 1 2.5 1 4.8 4.8 0 0 1 1.9.9 4 4 0 0 1 .8 2h-12.9l-.2-.4c-.1-.2-.2-.1-.3-.2l-.5-.2c-.2-.1-.4-.1-.6-.3a2.3 2.3 0 0 1-1.2-1.5 6.5 6.5 0 0 1-.5-2.1 16.4 16.4 0 0 1 .2-2.2c0-.8.3-1.5.3-2v-1.5a6.6 6.6 0 0 1 .2-1.7c.2-.8.4-1.6.6-2.6s.5-2 .7-3 .6-2.1.8-3.1.5-1.8.7-2.6l.4-1.7c.2-.8.4-1.4.6-2a11.2 11.2 0 0 1 1-1.8 15.4 15.4 0 0 0 4.4-2.5 31.1 31.1 0 0 0 3.1-3.2l2.8-3.3a13.8 13.8 0 0 1 3.4-3 3.7 3.7 0 0 1 1.4-.7l2-.8 2.2-.9 2.1-1.1 1.6-1.3a3.2 3.2 0 0 0 .6-1.5c0-.5-.1-.9-.1-1.3a1.7 1.7 0 0 0-.6-1.2l-.7-.3-1.2-.5-1.1-.5-.8-.4a6.9 6.9 0 0 1-2-1.1l-2.5-1.9-2.5-1.5a2.8 2.8 0 0 0-1.7-.5h-7.6c-5.9 0-11.6-.1-17.2.1s-11.4.2-17.2.2c-4.3 0-8.4-.2-12.5-.4a115.9 115.9 0 0 1-12-1.3 76.9 76.9 0 0 1-11.7-2.9 63 63 0 0 1-11.5-4.9l-1.3-.7-1.6-1a3.4 3.4 0 0 1-1.2-1.2 2.4 2.4 0 0 1-.6-1.5l2.1.3 2.3.9 2.1 1 1.5.6a47.2 47.2 0 0 0 4.5 1.6 46.7 46.7 0 0 0 5 1.4l4.9 1 4.8.3H74l2.5-.3 3.3-.5 3.5-.6 3.4-.6 2.5-.6L96 123l7.1-1.5c2.4-.6 4.8-1.3 7.1-2.1a61.4 61.4 0 0 0 6.4-2.7l3.7-1.7 3.7-1.6 3.8-1.3a27.1 27.1 0 0 1 4.1-.9h4.5l1-.2 1.8-.3 3.3-.8 3.9-.8 3.9-.9c1.3-.3 2.3-.9 3.3-1.1s1.5-.7 1.8-.7h6.4c2.6 0 5.2.5 7.7.7s5 .5 7.6.5a10.7 10.7 0 0 0 4.9-1.6 20 20 0 0 0 4.4-3.4 48.8 48.8 0 0 0 3.8-4.9 59.5 59.5 0 0 0 3.1-5.5 43.4 43.4 0 0 0 2.5-5.4c.7-1.8 1.3-3.3 1.7-4.7s.8-2.2 1.1-3.3.7-2.1 1-3.1a11.5 11.5 0 0 1 1.2-2.5 5.2 5.2 0 0 1 1.7-1.9 7.2 7.2 0 0 1 2.5-1.6 12.7 12.7 0 0 1 3.7-.8h3c.7 1.6 1.7.9 2.9 1.3a34.9 34.9 0 0 1 3.4 1.5 10.2 10.2 0 0 1 2.9 1.8 2.6 2.6 0 0 1 1.2 2.1 2.3 2.3 0 0 1-.4 1.4 3.1 3.1 0 0 1-1.1.8z"/></symbol><symbol id="velociraptor" viewBox="0 0 256 256"><path d="M128 4.5A123.5 123.5 0 1 0 251.5 128 123.5 123.5 0 0 0 128 4.5zm106.8 112.7h-7.2a86.5 86.5 0 0 1-8.8-.5l-8.9-.9-8.8-1c-3-.2-5.9-.4-8.9-.4a119.7 119.7 0 0 0-15.8 1A66.4 66.4 0 0 0 161 119l-29.7 10.7c-.4.1-.8.7-1.1 1.5a11.2 11.2 0 0 0-.8 2.6c-.3 1-.5 1.9-.7 2.8a5.6 5.6 0 0 1-.5 1.9 2.7 2.7 0 0 0 1.3 1.3 13.3 13.3 0 0 0 2.4 1.1l2.8 1.2a17.4 17.4 0 0 1 2.7 1.4 8.6 8.6 0 0 1 2 1.8 4.1 4.1 0 0 1 .8 2.4 1.8 1.8 0 0 1-.5 1.2l-1.2.8-1.5.7-1.6.8a4 4 0 0 0-1.2 1 2.5 2.5 0 0 0-.5 1.5 3.5 3.5 0 0 0 .8 2.4 7.7 7.7 0 0 0 1.9 1.6l2.3 1.3a6.5 6.5 0 0 1 2.1 1.6 16.3 16.3 0 0 1 1.9 3.4 15.5 15.5 0 0 1 1.3 3.6 22 22 0 0 1 .7 3.7c.2 1.3.1 2.6.3 3.8l1.3 1.3v7h1.8l.9.2.6.3a5.4 5.4 0 0 0 .1.8c0 .2-.1.5-.1.9a5.6 5.6 0 0 1-.4 1.2 3.5 3.5 0 0 1-.6.9c-.2.3-.5.3-.9.3h-5c-.2 0-.5-.5-1-.8l-1.4-.8-1.5-.7c-.5-.3-.9-.9-1.2-.9h-5.9a4.4 4.4 0 0 1 .6-2.8 4.1 4.1 0 0 1 1.6-1.6 6.6 6.6 0 0 1 2-.6l2.1-.3 1.6-.6a1.5 1.5 0 0 0 .6-1.3v-.6l-.9-1.7a17.1 17.1 0 0 0-1.2-2.3 9.7 9.7 0 0 0-1.5-2.4 7.1 7.1 0 0 0-1.5-1.8l-1.2-.8-1.8-.9-1.8-1a1.9 1.9 0 0 1-.9-1.1c-.3-.8-.6-1.7-.9-2.8a22.6 22.6 0 0 0-1-3.1 9.8 9.8 0 0 0-1.7-2.6 4.1 4.1 0 0 0-2.8-1 23.9 23.9 0 0 0-5.9.8 21.8 21.8 0 0 0-5.5 2.2 21.4 21.4 0 0 0-8.7 7.8l-.3.2h-.3c-.1 0-.1-.2-.2-.3a6.4 6.4 0 0 1-.2-.7 4.3 4.3 0 0 0-.1-.5c-.1-.2-.1-.3-.2-.4h-.3a1.3 1.3 0 0 0-1 .4 3.6 3.6 0 0 0-.8 1.2l-.8 1.2a3 3 0 0 1-.9 1 6.4 6.4 0 0 1-.6-1.6c0-.4-.1-.9-.1-1.6a12.6 12.6 0 0 1 .4-2.8l.9-2.7c.3-.9.6-1.5.9-2.5s.4-2.7.4-2.7h-4.8c0-1.6.2-1.7.7-2.3a5.4 5.4 0 0 1 1.5-1.5 7.8 7.8 0 0 1 2.1-.9l2.1-.3 2.9.2 2.8.5 2.8.4 2.9.2h2.2a2.6 2.6 0 0 0-1.6-1.3l-2.5-.4-2.6-.2c-.9-.1-1.6.1-2.1-.2l-3.8-2.1h-.3a16.3 16.3 0 0 0-3.1-.1 10.1 10.1 0 0 1-3 .2 6.5 6.5 0 0 1-2.9-.7l-2.6-1.3a12.6 12.6 0 0 0-2.6-1.3 4.6 4.6 0 0 0-2.8-.6v5.8h1.6l1-.3.8-.5.9-.7h.6v2.7l1.9-.7c0 .1.2.3.2.5l.2.5a5.5 5.5 0 0 1-1.3 3.8 22.9 22.9 0 0 1-3.2 2.8 18.8 18.8 0 0 0-4.5-1.2l-4.6-.7v-7.6c0 .1-1 .3-1.7.6a17.6 17.6 0 0 0-2 .9 14 14 0 0 0-1.8 1.2c-.5.4-.9.8-.9 1.1v6.7a14.3 14.3 0 0 0 2.8-.7l1.8-.6 1.2-.6a2.7 2.7 0 0 1 1.2-.3h.3a1.5 1.5 0 0 1 .3.7l.5 1.2a6.1 6.1 0 0 1 .3 1.3 1.8 1.8 0 0 1 .2.9 3.9 3.9 0 0 1-.4 1.8 5.2 5.2 0 0 1-1 1.8 4.7 4.7 0 0 1-1.5 1.3 3.1 3.1 0 0 1-1.8.5h-1l-2.9-.4-3.5-.7a13.3 13.3 0 0 1-3.2-1.2 2.6 2.6 0 0 1-1.4-2.1v-11.3c0-.1.4-.4.9-.8a15.4 15.4 0 0 1 1.8-1.6l2.3-2.1a27.3 27.3 0 0 0 2.3-2.5 19.5 19.5 0 0 0 1.8-2.5 6.8 6.8 0 0 0 .7-2.6 4 4 0 0 0-1.1-2.7 11.5 11.5 0 0 0-2.8-1.9 21.2 21.2 0 0 0-3.1-1.4l-2.5-.9-1.3-8.8a13.8 13.8 0 0 0-.6-2.6 10.8 10.8 0 0 0-1-2.7 9.1 9.1 0 0 0-1.8-2.1 3.6 3.6 0 0 0-2.5-.8 12.8 12.8 0 0 0-3.6.4 12.5 12.5 0 0 0-3.1 1.5l-1.6 1-2.5 1.4-2.8 1.7-2.9 1.7-2.5 1.6c-.7.4-1.3 1.1-1.6 1.1h-1l-1.6-.2-2.1-.4c-.6-.1-.8-.4-1.3-.7s-.3-.8-.3-1.4v-1.8c0-.6-.2-.9 0-.9h1.5v-.4l.2-.8c.1-.3.1-.6.2-.8v-.5a2 2 0 0 0-.8-.8l-.8-.5-.7-.7a1.7 1.7 0 0 1-.3-1.2 5.2 5.2 0 0 1 .2-1.1 4.1 4.1 0 0 1 .7-1.1c.3-.4.2-.7.6-.9l.8-.3v.7c0 .5.4 1 .5 1.5a1.2 1.2 0 0 0 1.2.7 2.1 2.1 0 0 0 1.1-.5l.9-1.1a7.6 7.6 0 0 0 .6-1.6c.2-.4.3.3.3-1.3H24.6a1.5 1.5 0 0 1-.8-.5l-1.1-.6-.9-.8a1.7 1.7 0 0 1-.3-1 4.5 4.5 0 0 1 1-3.1 7.4 7.4 0 0 1 2.5-1.7 18.6 18.6 0 0 1 3.1-1 15.8 15.8 0 0 0 2.8-.8l2.1-.9 3.3-1.5 3.3-1.6a8.8 8.8 0 0 1 2.1-1h13.2a7.2 7.2 0 0 1 3.8 1 11.3 11.3 0 0 1 3 2.4 39.2 39.2 0 0 1 2.5 3.2 25.7 25.7 0 0 0 2.2 3.2 13.6 13.6 0 0 0 2.2 2.5 3.3 3.3 0 0 0 2.4 1 .8.8 0 0 0 .8-.4c.1-.3.4-.4.8-.4a3.5 3.5 0 0 1 1.4.3l1.5.7 1.5.7a4 4 0 0 0 1.5.3l4-.2 4-.4 4-.5 4-.2a55.3 55.3 0 0 1 7.1.4 31.4 31.4 0 0 1 7 1.5c1.6.5 3.2 1.2 4.9 1.9a44 44 0 0 0 5 2.1 29.5 29.5 0 0 0 5 1.7 19.3 19.3 0 0 0 5.3.7h2.5l12.5-2.6c4.2-.9 8.3-1.6 12.5-2.2s8.3-1.2 12.5-1.6 8.5-.5 12.8-.5h8.6c1.8.1 3.4.7 4.9.9l35.3 7.1h11.4c-.8 0-1.8.9-3 1.3a26.1 26.1 0 0 1-4 .2z"/></symbol></svg>